<svg xmlns="http://www.w3.org/2000/svg" viewBox="0 0 97.13 72.54"><defs><style>.cls-1{fill:#f5a611;}</style></defs><title>logosvg</title><g id="레이어_2" data-name="레이어 2"><g id="레이어_1-2" data-name="레이어 1"><path class="cls-1" d="M95.71,18.79a1.4,1.4,0,0,0-1,.39L62,32,49.87.89a1.4,1.4,0,0,0-2.61,0L35.1,32,2.38,19.18A1.41,1.41,0,0,0,.05,20.57l17.4,47.08a7.49,7.49,0,0,0,7,4.89h48a7.81,7.81,0,0,0,7.33-5.1L97.08,20.57A1.41,1.41,0,0,0,95.71,18.79ZM49.76,8.85l9.92,25.39L48.57,44.77,37.45,34.24,47.37,8.85A1.28,1.28,0,0,1,49.76,8.85Zm11.1,28.4L72.76,67.7l-22-20.86ZM46.38,46.84l-22,20.86,11.9-30.45ZM7.12,26.16,33.92,35,21.09,67.86l-15.62-40A1.32,1.32,0,0,1,7.12,26.16ZM26.79,69.54,48.57,48.91,70.34,69.54ZM76,67.86,63.21,35,88.07,26.8a2.29,2.29,0,0,1,2.84,3Z"/></g></g></svg>