<svg xmlns="http://www.w3.org/2000/svg" viewBox="0 0 97.13 72.54"><defs><style>.cls-1{fill:#231815;}</style></defs><title>logo_1</title><g id="레이어_2" data-name="레이어 2"><g id="레이어_1-2" data-name="레이어 1"><path class="cls-1" d="M95.71.61a1.4,1.4,0,0,0-1,.39L62,32,49.87.89a1.4,1.4,0,0,0-2.61,0L35.1,32,2.38,1a1.4,1.4,0,0,0-1-.39A1.41,1.41,0,0,0,.05,2.4L19.26,72.54H77.87L97.08,2.4A1.41,1.41,0,0,0,95.71.61ZM48.57,5.79,59.68,34.24,48.57,44.77,37.45,34.24ZM60.86,37.25,72.76,67.7l-22-20.86ZM46.38,46.84l-22,20.86,11.9-30.45ZM4.45,7.1,33.92,35,21.09,67.86ZM26.79,69.54,48.57,48.91,70.34,69.54ZM76,67.86,63.21,35,92.68,7.1Z"/></g></g></svg>